<mxfile host="app.diagrams.net" agent="Mozilla/5.0 (Macintosh; Intel Mac OS X 10_15_7) AppleWebKit/537.36 (KHTML, like Gecko) Chrome/134.0.0.0 Safari/537.36" version="26.1.0">
  <diagram name="Page-1" id="qgzqsG2-beLDzdY5bN2H">
    <mxGraphModel dx="1434" dy="795" grid="1" gridSize="10" guides="1" tooltips="1" connect="1" arrows="1" fold="1" page="1" pageScale="1" pageWidth="850" pageHeight="1100" math="0" shadow="0">
      <root>
        <mxCell id="0" />
        <mxCell id="1" parent="0" />
        <mxCell id="CRzVVsIAVLlHWXjR-EhN-1" value="" style="rounded=0;whiteSpace=wrap;html=1;" vertex="1" parent="1">
          <mxGeometry x="150" y="230" width="490" height="240" as="geometry" />
        </mxCell>
        <mxCell id="CRzVVsIAVLlHWXjR-EhN-3" value="" style="shape=umlActor;verticalLabelPosition=bottom;verticalAlign=top;html=1;outlineConnect=0;" vertex="1" parent="1">
          <mxGeometry x="280" y="250" width="20" height="40" as="geometry" />
        </mxCell>
        <mxCell id="CRzVVsIAVLlHWXjR-EhN-4" value="" style="shape=umlActor;verticalLabelPosition=bottom;verticalAlign=top;html=1;outlineConnect=0;" vertex="1" parent="1">
          <mxGeometry x="280" y="410" width="20" height="40" as="geometry" />
        </mxCell>
        <mxCell id="CRzVVsIAVLlHWXjR-EhN-5" value="" style="shape=umlActor;verticalLabelPosition=bottom;verticalAlign=top;html=1;outlineConnect=0;" vertex="1" parent="1">
          <mxGeometry x="230" y="370" width="20" height="40" as="geometry" />
        </mxCell>
        <mxCell id="CRzVVsIAVLlHWXjR-EhN-6" value="" style="shape=umlActor;verticalLabelPosition=bottom;verticalAlign=top;html=1;outlineConnect=0;" vertex="1" parent="1">
          <mxGeometry x="220" y="260" width="20" height="40" as="geometry" />
        </mxCell>
        <mxCell id="CRzVVsIAVLlHWXjR-EhN-7" value="" style="shape=umlActor;verticalLabelPosition=bottom;verticalAlign=top;html=1;outlineConnect=0;" vertex="1" parent="1">
          <mxGeometry x="350" y="260" width="20" height="40" as="geometry" />
        </mxCell>
        <mxCell id="CRzVVsIAVLlHWXjR-EhN-8" value="" style="shape=umlActor;verticalLabelPosition=bottom;verticalAlign=top;html=1;outlineConnect=0;" vertex="1" parent="1">
          <mxGeometry x="180" y="400" width="20" height="40" as="geometry" />
        </mxCell>
        <mxCell id="CRzVVsIAVLlHWXjR-EhN-9" value="" style="shape=umlActor;verticalLabelPosition=bottom;verticalAlign=top;html=1;outlineConnect=0;" vertex="1" parent="1">
          <mxGeometry x="370" y="340" width="20" height="40" as="geometry" />
        </mxCell>
        <mxCell id="CRzVVsIAVLlHWXjR-EhN-10" value="" style="shape=umlActor;verticalLabelPosition=bottom;verticalAlign=top;html=1;outlineConnect=0;" vertex="1" parent="1">
          <mxGeometry x="180" y="320" width="20" height="40" as="geometry" />
        </mxCell>
        <mxCell id="CRzVVsIAVLlHWXjR-EhN-11" value="" style="shape=umlActor;verticalLabelPosition=bottom;verticalAlign=top;html=1;outlineConnect=0;" vertex="1" parent="1">
          <mxGeometry x="280" y="320" width="20" height="40" as="geometry" />
        </mxCell>
        <mxCell id="CRzVVsIAVLlHWXjR-EhN-12" value="" style="rounded=0;whiteSpace=wrap;html=1;" vertex="1" parent="1">
          <mxGeometry x="340" y="360" width="80" height="40" as="geometry" />
        </mxCell>
        <mxCell id="CRzVVsIAVLlHWXjR-EhN-14" value="" style="rounded=0;whiteSpace=wrap;html=1;" vertex="1" parent="1">
          <mxGeometry x="440" y="230" width="200" height="240" as="geometry" />
        </mxCell>
        <mxCell id="CRzVVsIAVLlHWXjR-EhN-16" value="&lt;b&gt;&lt;font style=&quot;font-size: 16px;&quot;&gt;Question&lt;/font&gt;&lt;/b&gt;" style="text;html=1;align=center;verticalAlign=middle;whiteSpace=wrap;rounded=0;" vertex="1" parent="1">
          <mxGeometry x="510" y="230" width="60" height="30" as="geometry" />
        </mxCell>
        <mxCell id="CRzVVsIAVLlHWXjR-EhN-17" value="&lt;font style=&quot;font-size: 17px;&quot;&gt;2 x 2 = ?&lt;/font&gt;" style="text;html=1;align=center;verticalAlign=middle;whiteSpace=wrap;rounded=0;" vertex="1" parent="1">
          <mxGeometry x="500" y="280" width="80" height="40" as="geometry" />
        </mxCell>
        <mxCell id="CRzVVsIAVLlHWXjR-EhN-18" value="" style="ellipse;whiteSpace=wrap;html=1;aspect=fixed;" vertex="1" parent="1">
          <mxGeometry x="470" y="335" width="25" height="25" as="geometry" />
        </mxCell>
        <mxCell id="CRzVVsIAVLlHWXjR-EhN-19" value="&lt;font style=&quot;font-size: 17px;&quot;&gt;4&lt;/font&gt;" style="text;html=1;align=left;verticalAlign=middle;whiteSpace=wrap;rounded=0;" vertex="1" parent="1">
          <mxGeometry x="500" y="327.5" width="20" height="40" as="geometry" />
        </mxCell>
        <mxCell id="CRzVVsIAVLlHWXjR-EhN-21" value="" style="ellipse;whiteSpace=wrap;html=1;aspect=fixed;" vertex="1" parent="1">
          <mxGeometry x="470" y="375" width="25" height="25" as="geometry" />
        </mxCell>
        <mxCell id="CRzVVsIAVLlHWXjR-EhN-22" value="&lt;font style=&quot;font-size: 17px;&quot;&gt;7&lt;/font&gt;" style="text;html=1;align=left;verticalAlign=middle;whiteSpace=wrap;rounded=0;" vertex="1" parent="1">
          <mxGeometry x="500" y="367.5" width="20" height="40" as="geometry" />
        </mxCell>
        <mxCell id="CRzVVsIAVLlHWXjR-EhN-23" value="Submit" style="rounded=1;whiteSpace=wrap;html=1;" vertex="1" parent="1">
          <mxGeometry x="505" y="430" width="70" height="30" as="geometry" />
        </mxCell>
      </root>
    </mxGraphModel>
  </diagram>
</mxfile>
